<?xml version="1.0" encoding="utf-8"?>
<svg
	version="1.1"
	xmlns="http://www.w3.org/2000/svg"
	xmlns:xlink="http://www.w3.org/1999/xlink"
	x="0%" y="0%"
	width="100%" height="100%"
	viewBox="0 0 15.0 15.0"
	enable-background="new 0 0 15.0 15.0"
	xml:space="preserve">
<defs>
	<linearGradient id="fillGrad1" x1="50.000%" y1="-1.136%" x2="50.000%" y2="101.136%">
   		<stop offset="0.000%" style="stop-color:rgb(0,0,0);stop-opacity:0.000" />
		<stop offset="100.000%" style="stop-color:rgb(0,0,0);stop-opacity:0.639" />
	</linearGradient>

	<linearGradient id="fillGrad2" x1="55.116%" y1="-83.471%" x2="44.917%" y2="7.768%">
   		<stop offset="0.000%" style="stop-color:rgb(0,0,0);stop-opacity:1.000" />
		<stop offset="100.000%" style="stop-color:rgb(0,0,0);stop-opacity:0.000" />
	</linearGradient>

	<linearGradient id="fillGrad3" x1="50.000%" y1="-23.529%" x2="50.000%" y2="84.314%">
   		<stop offset="0.000%" style="stop-color:rgb(255,255,255);stop-opacity:1.000" />
		<stop offset="100.000%" style="stop-color:rgb(255,255,255);stop-opacity:0.000" />
	</linearGradient>

</defs>
	<path
		fill="#0094FF"
		stroke="#000000"
		fill-opacity="1.000"
		stroke-opacity="0.000"
		fill-rule="nonzero"
		stroke-width="0.14999999"
		stroke-linejoin="miter"
		stroke-linecap="square"
		d="M7.50,0.83C11.18,0.83,14.17,3.82,14.17,7.50C14.17,11.18,11.18,14.17,7.50,14.17C3.82,14.17,0.83,11.18,0.83,7.50C0.83,3.82,3.82,0.83,7.50,0.83z"/>
	<path
		transform = "rotate(-0.00 7.50 7.50)"
		fill="url(#fillGrad1)"
		stroke="#000000"
		fill-opacity="1.0"
		stroke-opacity="0.000"
		fill-rule="nonzero"
		stroke-width="0.14999999"
		stroke-linejoin="miter"
		stroke-linecap="square"
		d="M7.50,0.83C11.18,0.83,14.17,3.82,14.17,7.50C14.17,11.18,11.18,14.17,7.50,14.17C3.82,14.17,0.83,11.18,0.83,7.50C0.83,3.82,3.82,0.83,7.50,0.83z"/>
	<path
		transform = "rotate(-26.64 7.50 7.50)"
		fill="url(#fillGrad2)"
		stroke="#000000"
		fill-opacity="1.0"
		stroke-opacity="0.000"
		fill-rule="nonzero"
		stroke-width="0.14999999"
		stroke-linejoin="miter"
		stroke-linecap="square"
		d="M0.88,8.33A6.67 6.67 -0.00 0 0 14.12,8.33"/>
	<path
		transform = "rotate(-0.00 7.50 3.75)"
		fill="url(#fillGrad3)"
		stroke="#000000"
		fill-opacity="1.0"
		stroke-opacity="0.000"
		fill-rule="nonzero"
		stroke-width="0.14999999"
		stroke-linejoin="miter"
		stroke-linecap="square"
		d="M7.50,1.50C9.71,1.50,11.50,2.51,11.50,3.75C11.50,4.99,9.71,6.00,7.50,6.00C5.29,6.00,3.50,4.99,3.50,3.75C3.50,2.51,5.29,1.50,7.50,1.50z"/>
</svg>